<?xml version="1.0" standalone="no"?>
<!DOCTYPE svg PUBLIC "-//W3C//DTD SVG 20010904//EN"
 "http://www.w3.org/TR/2001/REC-SVG-20010904/DTD/svg10.dtd">
<svg version="1.0" xmlns="http://www.w3.org/2000/svg"
 width="908.000000pt" height="350.000000pt" viewBox="0 0 908.000000 350.000000"
 preserveAspectRatio="xMidYMid meet">

<g transform="translate(0.000000,350.000000) scale(0.100000,-0.100000)"
fill="#000000" stroke="none">
<path d="M4932 3450 c2 -4 107 -128 233 -275 127 -146 240 -283 252 -303 44
-72 17 -173 -56 -216 -38 -22 -5 -20 -1706 -95 -709 -32 -921 -43 -895 -47 8
-2 301 -15 650 -29 616 -25 838 -41 614 -44 -178 -2 -3078 -91 -3081 -95 -2
-1 187 -8 420 -14 232 -7 478 -15 547 -18 69 -2 654 -20 1300 -39 646 -19
1225 -37 1285 -39 61 -3 168 -6 239 -6 71 0 127 -3 123 -6 -3 -3 -115 -15
-249 -25 -134 -11 -247 -21 -253 -22 -5 -2 98 -11 230 -21 132 -9 256 -21 275
-25 19 -3 -366 -19 -855 -34 -490 -15 -933 -30 -985 -33 -52 -2 -459 -16 -905
-29 -764 -24 -927 -31 -775 -34 36 -1 542 -17 1125 -36 583 -19 1094 -36 1135
-36 149 -3 -246 -19 -1270 -49 -569 -17 -1116 -34 -1215 -38 l-180 -7 210 -8
c116 -4 658 -21 1205 -37 547 -17 1004 -32 1015 -34 11 -2 -15 -4 -57 -5 -89
-1 -1381 -36 -1908 -51 -195 -5 -546 -14 -780 -20 -234 -6 -434 -12 -445 -13
-37 -5 1025 -34 2935 -82 575 -14 1070 -29 1100 -32 41 -5 -1 -10 -160 -18
-118 -7 -322 -18 -453 -25 -130 -7 -236 -14 -235 -16 2 -1 224 -14 493 -28
482 -26 569 -33 470 -35 -27 -1 -729 -21 -1560 -46 -830 -24 -1617 -48 -1748
-51 -130 -4 -236 -8 -235 -10 2 -1 170 -7 373 -13 204 -6 514 -16 690 -21 176
-6 559 -17 850 -25 292 -8 591 -17 665 -20 74 -2 232 -8 350 -12 118 -4 199
-9 180 -10 -30 -3 -961 -39 -1503 -60 -97 -3 -176 -7 -174 -9 1 -2 410 -19
907 -39 497 -20 906 -38 909 -40 2 -3 -22 -5 -55 -5 -56 0 -1087 -33 -1414
-45 -367 -14 -1051 -35 -1124 -35 -44 0 -77 -2 -75 -5 5 -4 881 -34 3534 -120
289 -9 399 -16 432 -26 76 -24 121 -126 90 -202 -9 -19 -122 -159 -251 -310
-130 -151 -236 -277 -236 -280 0 -3 382 -6 848 -6 l848 -1 349 407 c193 223
522 606 733 851 210 245 382 448 382 452 0 4 -330 390 -732 859 l-733 851
-848 0 c-467 -1 -847 -5 -845 -10z"/>
</g>
</svg>
