<?xml version="1.0" standalone="no"?>
<!DOCTYPE svg PUBLIC "-//W3C//DTD SVG 20010904//EN"
 "http://www.w3.org/TR/2001/REC-SVG-20010904/DTD/svg10.dtd">
<svg version="1.0" xmlns="http://www.w3.org/2000/svg"
 width="800.000000pt" height="566.000000pt" viewBox="0 0 800.000000 566.000000"
 preserveAspectRatio="xMidYMid meet">

<g transform="translate(0.000000,566.000000) scale(0.100000,-0.100000)"
fill="#000000" stroke="none">
<path d="M577 3286 c4 -7 57 -86 118 -175 l109 -161 169 0 c93 0 167 4 165 9
-1 5 -52 83 -113 175 l-110 166 -173 0 c-144 0 -172 -2 -165 -14z"/>
<path d="M1122 3293 c2 -5 54 -83 116 -175 l112 -168 171 0 c133 0 169 3 163
13 -4 6 -56 85 -116 175 l-108 162 -171 0 c-94 0 -169 -3 -167 -7z"/>
<path d="M1672 3291 c2 -5 53 -83 113 -175 l110 -166 173 0 172 0 -117 175
-116 175 -169 0 c-94 0 -168 -4 -166 -9z"/>
<path d="M2327 3125 l116 -175 169 0 c94 0 168 4 166 9 -1 5 -52 83 -113 175
l-110 166 -173 0 -172 0 117 -175z"/>
<path d="M6400 3059 c45 -90 83 -166 86 -168 2 -2 4 -9 4 -15 0 -8 -809 -10
-2850 -8 l-2850 2 0 -40 0 -40 2850 2 c1568 2 2850 1 2850 -2 0 -4 -38 -83
-85 -178 -46 -95 -83 -172 -82 -172 1 0 221 77 487 171 267 94 513 181 548
192 34 12 62 24 62 27 0 3 -242 90 -537 194 -296 104 -544 191 -551 194 -7 2
24 -69 68 -159z"/>
<path d="M695 2549 c-61 -89 -114 -168 -118 -175 -7 -12 21 -14 165 -14 l173
0 110 166 c61 92 112 170 113 175 2 5 -72 9 -165 9 l-169 0 -109 -161z"/>
<path d="M1238 2543 c-62 -93 -114 -171 -116 -175 -2 -5 73 -8 167 -8 l171 0
108 163 c60 89 112 168 116 175 6 9 -30 12 -163 12 l-171 0 -112 -167z"/>
<path d="M1785 2544 c-60 -92 -111 -170 -113 -175 -2 -5 72 -9 166 -9 l169 0
116 175 117 175 -172 0 -173 0 -110 -166z"/>
<path d="M2327 2535 l-117 -175 172 0 173 0 110 166 c61 92 112 170 113 175 2
5 -72 9 -166 9 l-169 0 -116 -175z"/>
</g>
</svg>
